PathFileType	3	(X/Y/Z)	D:\minhoCalibration\240510\subject1_KPNP\preferred\preferred07.trc
DataRate	CameraRate	NumFrames	NumMarkers	Units	OrigDataRate	OrigDataStartFrame	OrigNumFrames
200.0	200.0	37	10	mm	200.0	438	252	
Frame#	Time	Left_Ankle_Outer1			Left_Ankle_Inner1			Left_Knee_Outer1			Left_Knee_Inner1			Left_Wrist1			Right_Wrist1			Right_Knee_Inner1			Right_Knee_Outer1			Right_Ankle_Inner1			Right_Ankle_Outer1			
		X1	Y1	Z1	X2	Y2	Z2	X3	Y3	Z3	X4	Y4	Z4	X5	Y5	Z5	X6	Y6	Z6	X7	Y7	Z7	X8	Y8	Z8	X9	Y9	Z9	X10	Y10	Z10	
438	2.18	-501.52689	142.03932	-590.43542	-536.87225	157.88806	-546.52698	-330.38016	562.67755	-537.35748	-416.8342	549.0174	-471.12326	-357.785	1016.5212	-738.70026	-616.86859	1129.9977	-501.24728	-515.91748	800.49689	-169.90361	-615.33142	880.96094	-142.46446	-808.22266	752.73346	-484.8801	-903.57385	778.09436	-447.27768
439	2.185	-504.32657	142.808	-588.17615	-538.2561	158.62569	-543.53278	-330.63708	562.78577	-539.34607	-414.31198	549.31384	-471.51566	-363.16513	1016.232	-744.15961	-610.49622	1134.9769	-497.30472	-494.34314	814.47736	-162.88203	-587.0249	900.28577	-130.98288	-812.44836	769.46912	-454.10666	-904.4657	799.69977	-406.12183
440	2.19	-507.27393	143.62909	-586.0799	-540.37616	159.59912	-540.53601	-330.85602	562.78308	-541.1369	-413.00406	549.20691	-471.10184	-368.84824	1015.647	-749.0871	-604.85175	1140.3372	-493.77744	-473.08212	828.21667	-157.45399	-558.21069	919.26019	-122.01791	-818.31555	783.96234	-417.40735	-903.85931	820.37677	-364.04749
441	2.195	-510.08249	144.39243	-584.26514	-542.25195	159.98242	-537.69073	-331.87469	562.4837	-542.17865	-411.71039	549.4259	-471.31003	-374.79312	1014.7184	-753.31323	-598.40625	1145.853	-489.32437	-452.43744	841.83252	-153.28697	-529.75787	937.26044	-116.00539	-822.33618	798.60254	-382.01837	-900.98932	840.39441	-321.36136
442	2.2	-513.22589	144.84598	-582.23145	-544.57281	160.67094	-535.08887	-333.01743	562.15692	-542.81616	-412.50513	549.31964	-469.41293	-380.83707	1013.5515	-756.8197	-592.71594	1151.3098	-486.06302	-433.3299	855.30927	-149.63016	-501.99121	955.07843	-111.99987	-821.95685	813.10394	-339.36273	-896.06317	859.96179	-276.64062
443	2.205	-516.28375	145.33617	-580.33911	-546.86035	160.8376	-532.53625	-334.56781	561.67224	-542.74274	-413.41821	549.76196	-467.06448	-386.99216	1012.0344	-759.41766	-587.74347	1156.9885	-482.9664	-414.49042	868.69989	-146.47192	-475.18027	971.88696	-110.54067	-821.37878	826.10388	-294.95215	-888.85168	879.37952	-229.50764
444	2.21	-519.4895	145.63388	-578.43604	-549.61731	161.22659	-530.60199	-335.61728	561.40729	-542.62634	-414.11203	549.62976	-466.63266	-393.16412	1010.2584	-761.34106	-582.64087	1162.4423	-480.56677	-396.5773	882.63007	-144.35706	-450.17093	988.23303	-110.74825	-821.0036	838.37109	-248.80151	-878.12531	898.04572	-182.39449
445	2.215	-522.5816	145.73552	-576.60956	-551.92352	160.9471	-527.914	-337.44012	560.93005	-541.36646	-415.5849	549.49994	-465.26767	-399.33392	1008.2548	-762.61694	-577.61035	1167.5403	-478.81808	-379.73117	896.12933	-142.42859	-427.15253	1003.376	-112.43088	-818.78186	850.78503	-203.96133	-864.99225	916.43634	-131.87604
446	2.22	-525.4906	145.70856	-574.83258	-554.39856	160.76974	-525.88391	-339.32361	560.47571	-539.7973	-417.18716	549.138	-464.16211	-405.36093	1006.0334	-763.60699	-572.94128	1172.2422	-477.21198	-363.79431	909.59174	-141.10931	-406.87653	1017.7509	-115.2273	-810.04108	863.2547	-152.84888	-847.5509	934.68903	-82.3414
447	2.225	-528.26758	145.47523	-572.87567	-556.90295	160.63322	-523.95782	-341.30341	559.90564	-537.89124	-418.76901	549.73566	-460.88559	-411.11218	1003.7092	-763.62787	-568.62573	1176.6631	-476.04736	-349.23218	922.75592	-140.20232	-388.31174	1031.3134	-119.36376	-797.2851	875.9967	-100.89571	-826.61237	952.46124	-32.090584
448	2.23	-530.51385	145.20372	-571.23151	-558.99835	159.88554	-522.02954	-342.89352	559.70166	-535.88312	-421.72888	548.69629	-459.21417	-416.41855	1001.3326	-762.97125	-564.7962	1180.6979	-475.20627	-335.95721	935.63086	-140.18161	-372.74719	1043.8356	-123.87651	-779.42462	889.04089	-51.010258	-801.58649	969.9549	17.029905
449	2.235	-532.68976	144.76366	-569.60388	-560.96735	159.23146	-520.40247	-344.50583	559.18372	-533.76147	-423.03867	548.72766	-457.31906	-421.01129	999.00079	-762.17914	-561.45276	1184.3395	-474.7814	-324.83459	948.33966	-140.26279	-360.15332	1055.671	-128.51624	-757.38135	902.18622	1.3560952	-772.05615	988.08331	66.950592
450	2.24	-534.52112	144.21095	-568.10553	-562.92151	158.58437	-519.12305	-346.4165	558.52197	-531.12213	-425.28278	547.88885	-455.4321	-424.86044	996.67224	-760.85754	-558.52264	1187.3511	-475.44525	-315.96747	960.6095	-140.69411	-350.72617	1066.5718	-133.03857	-729.98694	915.41003	58.099052	-738.91321	1005.5261	114.59118
451	2.245	-536.06543	143.66283	-566.90399	-564.6366	158.08167	-517.9599	-347.50726	558.04327	-528.66327	-427.20316	547.27844	-453.26169	-428.0939	994.36328	-759.20746	-556.15283	1190.3184	-476.39587	-309.68463	972.38538	-141.07828	-344.20425	1076.7726	-137.2063	-698.30157	931.15479	109.47836	-700.77655	1023.0682	159.73627
452	2.25	-537.30927	143.05418	-565.89655	-565.79205	157.0706	-516.77692	-348.66232	557.26221	-526.14374	-428.93564	547.25366	-450.16476	-430.46725	992.21472	-757.29285	-554.68744	1192.8251	-477.0484	-305.8483	983.25574	-141.52126	-340.56863	1086.3641	-140.55949	-662.29193	947.117	155.87494	-658.3891	1040.2228	202.15363
453	2.255	-538.26752	142.44759	-565.26733	-566.91766	156.2636	-516.1911	-349.42856	556.73639	-523.63959	-430.36661	546.07129	-448.77621	-432.2626	990.11865	-754.74347	-553.89838	1194.6863	-477.78229	-304.52817	993.3858	-141.71938	-340.31882	1094.7335	-142.74544	-621.34668	961.42639	199.93114	-612.58203	1057.5186	242.39075
454	2.26	-539.00385	141.70694	-564.83112	-567.89734	155.37704	-515.76538	-350.44269	555.90417	-521.05261	-431.92325	544.95374	-446.89392	-433.31555	988.44568	-752.11273	-553.93024	1196.0322	-478.2229	-305.57178	1002.7009	-141.41008	-342.79004	1101.7163	-143.38736	-572.96979	976.36768	239.4389	-562.19354	1074.4635	276.73508
455	2.265	-539.46899	141.06923	-564.72382	-568.79333	154.54707	-515.86407	-351.09781	555.30988	-518.53564	-433.16165	544.05237	-444.79553	-433.77679	987.04657	-749.27802	-554.67169	1196.8	-478.3241	-309.17166	1010.6528	-140.42697	-346.74088	1107.4783	-142.55255	-522.25549	989.08911	272.40222	-508.74799	1090.4828	304.8678
456	2.27	-539.71112	140.28749	-564.85944	-569.42969	153.62033	-516.33502	-353.15439	554.01733	-514.98376	-435.01224	543.13818	-441.69705	-433.77313	985.95123	-746.18195	-556.02844	1197.1062	-477.87003	-314.00076	1017.0362	-138.50761	-353.26529	1112.0962	-140.35159	-466.64175	1004.6013	298.31247	-452.9476	1106.5056	325.36624
457	2.275	-539.80255	139.46593	-565.08185	-570.25385	152.847	-517.08386	-353.78156	553.37787	-512.57458	-436.04852	542.15186	-439.83417	-433.11047	985.27631	-742.69928	-557.96271	1197.0693	-476.75977	-319.53119	1022.571	-135.77144	-361.33926	1116.4215	-137.65434	-409.01721	1019.4198	314.50906	-396.48737	1120.2808	336.5705
458	2.28	-539.80402	138.67329	-565.37909	-570.65149	151.90927	-517.53473	-354.25006	552.66473	-510.06149	-436.95212	540.8811	-439.00089	-431.84598	984.9101	-738.69617	-560.3327	1196.8312	-475.05176	-325.89789	1027.1458	-132.01115	-371.21362	1120.3112	-133.74098	-351.06705	1028.9073	321.82675	-341.39615	1133.9431	339.57291
459	2.285	-539.74493	137.81374	-565.73615	-570.79785	150.80185	-517.87451	-354.4964	551.89819	-507.4942	-437.24487	539.27081	-438.65884	-430.03552	984.87238	-734.0946	-562.6662	1196.0341	-473.36685	-330.93066	1030.7573	-128.02438	-380.94089	1123.7865	-127.79848	-317.26627	1038.0918	319.23398	-300.84113	1147.3252	326.68774
460	2.29	-539.69757	137.11902	-566.1145	-571.19714	149.99388	-518.48474	-354.60553	551.0097	-504.89194	-438.1795	538.091	-436.47778	-427.6181	985.17963	-728.77332	-565.07739	1195.3499	-469.81985	-333.41534	1032.4485	-124.66132	-388.60211	1127.9615	-121.20074	-308.55447	1047.4615	317.10034	-283.35846	1154.6896	323.00616
461	2.295	-539.52692	136.56711	-566.57513	-571.36359	149.24773	-518.97784	-354.06244	550.4057	-502.47043	-438.88376	536.84692	-433.91928	-424.85468	985.56982	-722.70557	-567.52173	1195.2028	-465.61142	-330.82504	1033.5157	-122.92916	-392.01413	1135.6431	-116.65844	-316.25897	1056.64	324.05927	-276.37509	1160.507	323.39313
462	2.3	-539.11047	136.31627	-566.92316	-571.3045	148.72032	-519.44861	-354.00992	549.62073	-499.11725	-440.21228	536.14813	-428.74677	-421.89545	985.8963	-716.2088	-569.78436	1195.6351	-461.11774	-323.99255	1037.1842	-121.67989	-388.04102	1142.5962	-114.03062	-323.98209	1066.2562	328	-273.28659	1164.9294	323.34622
463	2.305	-538.24536	136.31906	-567.06732	-571.18158	148.66684	-519.99249	-354.63992	548.77777	-494.58704	-439.80136	534.9826	-425.39059	-419.00699	986.08411	-709.44183	-572.07654	1196.6694	-456.51025	-317.83493	1042.0096	-121.3493	-377.33377	1145.5254	-113.89801	-326.08533	1066.2893	328.49753	-277.46155	1166.4147	327.29785
464	2.31	-536.8269	136.65549	-567.10181	-570.15015	148.58469	-520.22034	-354.63959	548.60193	-489.8913	-440.14197	533.58862	-421.33923	-416.29434	986.0318	-702.7915	-574.79083	1197.9869	-452.44492	-314.46552	1045.2889	-122.46333	-365.32025	1144.4387	-115.34173	-325.24838	1063.084	328.99652	-287.5549	1165.4321	334.66272
465	2.315	-535.20898	137.13896	-566.46271	-568.96747	148.78799	-520.30371	-354.68658	548.78357	-484.44092	-440.46057	532.82526	-416.90326	-413.73007	985.72003	-696.52673	-578.20111	1199.3065	-447.63446	-315.49713	1044.8802	-120.85957	-355.68405	1140.0762	-117.53552	-327.43573	1060.5682	329.17969	-299.62296	1162.9465	341.22104
466	2.32	-533.06696	137.78325	-566.01727	-567.92059	149.12775	-520.69312	-354.81082	549.53003	-478.31369	-440.09686	532.40302	-413.43359	-411.43436	985.15637	-690.64972	-581.43549	1199.8734	-444.61786	-317.78528	1041.4268	-116.38178	-352.40164	1138.2268	-118.95702	-329.14276	1056.6776	327.27173	-310.8056	1160.785	345.65024
467	2.325	-530.66669	138.80504	-565.73541	-566.3017	149.62938	-520.55566	-354.92154	550.48242	-471.82825	-440.64859	532.28497	-410.02795	-409.28513	984.62732	-685.36914	-584.57776	1200.0588	-442.24585	-319.6051	1038.4471	-112.4583	-353.36749	1137.2261	-118.82928	-337.06894	1052.6326	328.15176	-317.95953	1156.6364	348.89728
468	2.33	-528.4566	139.80377	-565.16827	-565.22797	150.37669	-520.84204	-354.89731	551.47687	-465.23431	-442.12231	532.87091	-405.59171	-407.3157	984.09845	-680.32861	-587.48346	1199.9221	-440.32529	-321.58081	1036.762	-110.36002	-352.50375	1136.4756	-116.64378	-341.99313	1047.6497	329.94501	-324.99365	1152.2534	352.42786
469	2.335	-526.2431	140.82199	-564.53052	-563.67499	150.92046	-521.01758	-354.89948	552.34326	-458.70261	-444.3833	534.35376	-399.74686	-405.57947	983.67639	-675.48499	-590.17804	1199.642	-438.62216	-321.41745	1035.389	-110.82247	-350.95789	1136.3826	-113.78191	-349.17398	1042.9575	332.76071	-332.52133	1146.7118	354.85309
470	2.34	-524.27466	142.02065	-563.69781	-561.90967	151.94528	-520.93195	-354.95004	553.07318	-452.40259	-446.03677	534.53497	-397.47736	-404.0278	983.28656	-670.71417	-592.53265	1199.3416	-436.99744	-318.94214	1034.1687	-112.69642	-351.36035	1135.3599	-110.98457	-355.16843	1035.4446	334.48865	-339.42783	1140.0599	356.24182
471	2.345	-522.51129	143.21893	-562.80518	-560.92365	152.5495	-520.18097	-355.15726	553.71814	-446.44128	-448.47101	535.93182	-392.72626	-402.69257	982.97272	-665.99701	-594.8551	1199.145	-435.34177	-316.03366	1033.7994	-113.94326	-353.32361	1133.5868	-108.75327	-359.96857	1027.4138	336.3295	-345.53073	1131.8291	356.74258
472	2.35	-521.06293	144.54529	-561.83838	-560.08142	153.73718	-520.08405	-355.4986	554.44006	-440.94666	-450.44376	536.73236	-389.39847	-401.7374	982.57849	-661.2807	-597.13629	1198.8998	-433.52753	-312.75604	1034.3496	-114.35514	-355.40326	1131.9344	-106.89106	-364.79398	1018.8663	337.2825	-352.31268	1123.0667	358.03867
473	2.355	-519.99017	145.78078	-560.66235	-559.46991	154.68654	-519.3233	-355.8085	555.32379	-436.11987	-452.12857	537.23956	-386.86026	-400.88068	982.26184	-656.4826	-599.19373	1198.709	-431.655	-309.89612	1035.5104	-114.03893	-358.41309	1129.7047	-104.52328	-369.68176	1008.7131	337.4632	-360.2475	1113.1893	360.33722
474	2.36	-519.34875	146.97153	-559.33044	-559.0694	155.60657	-518.34912	-356.4126	556.04474	-431.83392	-453.51672	538.00195	-383.90323	-399.84076	982.0816	-651.91064	-601.26904	1198.2028	-429.5264	-304.55515	1037.2333	-114.33668	-362.35794	1126.9539	-101.45427	-373.34158	997.32495	338.16388	-368.12643	1102.257	362.69492
